{
    "asset" : {
        "generator" : "Khronos glTF Blender I/O v1.6.16",
        "version" : "2.0"
    },
    "scene" : 0,
    "scenes" : [
        {
            "name" : "Scene",
            "nodes" : [
                0,
                1,
                2
            ]
        }
    ],
    "nodes" : [
        {
            "mesh" : 0,
            "name" : "is",
            "translation" : [
                -3.0278146266937256,
                0.9742348790168762,
                -0.8225127458572388
            ]
        },
        {
            "mesh" : 1,
            "name" : "the",
            "rotation" : [
                -0.9999305009841919,
                0.002748945029452443,
                -0.011466491036117077,
                3.1522944482276216e-05
            ],
            "translation" : [
                -3.3464622497558594,
                0.8384525179862976,
                -1.2660139799118042
            ]
        },
        {
            "mesh" : 2,
            "name" : "coin",
            "scale" : [
                1,
                0.07771873474121094,
                1
            ],
            "translation" : [
                -2.751217842102051,
                0.9191679954528809,
                -1.0151125192642212
            ]
        }
    ],
    "materials" : [
        {
            "doubleSided" : true,
            "emissiveFactor" : [
                0.18377457559108734,
                0.18377457559108734,
                0.18377457559108734
            ],
            "name" : "textMaterial",
            "pbrMetallicRoughness" : {
                "baseColorFactor" : [
                    0.800000011920929,
                    0.800000011920929,
                    0.800000011920929,
                    1
                ],
                "metallicFactor" : 0,
                "roughnessFactor" : 0.5
            }
        },
        {
            "doubleSided" : true,
            "name" : "coinMaterial",
            "pbrMetallicRoughness" : {
                "baseColorFactor" : [
                    0.597202479839325,
                    0.3967551589012146,
                    0.04666513204574585,
                    1
                ],
                "metallicFactor" : 0,
                "roughnessFactor" : 0.5
            }
        }
    ],
    "meshes" : [
        {
            "name" : "is",
            "primitives" : [
                {
                    "attributes" : {
                        "POSITION" : 0,
                        "NORMAL" : 1,
                        "TEXCOORD_0" : 2
                    },
                    "indices" : 3,
                    "material" : 0
                }
            ]
        },
        {
            "name" : "the",
            "primitives" : [
                {
                    "attributes" : {
                        "POSITION" : 4,
                        "NORMAL" : 5,
                        "TEXCOORD_0" : 6
                    },
                    "indices" : 7,
                    "material" : 0
                }
            ]
        },
        {
            "name" : "coin",
            "primitives" : [
                {
                    "attributes" : {
                        "POSITION" : 8,
                        "NORMAL" : 9,
                        "TEXCOORD_0" : 10
                    },
                    "indices" : 11,
                    "material" : 1
                }
            ]
        }
    ],
    "accessors" : [
        {
            "bufferView" : 0,
            "componentType" : 5126,
            "count" : 223,
            "max" : [
                0.5640000104904175,
                0,
                0.009000000543892384
            ],
            "min" : [
                0.05700000375509262,
                0,
                -0.6380000114440918
            ],
            "type" : "VEC3"
        },
        {
            "bufferView" : 1,
            "componentType" : 5126,
            "count" : 223,
            "type" : "VEC3"
        },
        {
            "bufferView" : 2,
            "componentType" : 5126,
            "count" : 223,
            "type" : "VEC2"
        },
        {
            "bufferView" : 3,
            "componentType" : 5123,
            "count" : 540,
            "type" : "SCALAR"
        },
        {
            "bufferView" : 4,
            "componentType" : 5126,
            "count" : 282,
            "max" : [
                1.2790000438690186,
                0,
                0.009000000543892384
            ],
            "min" : [
                0,
                0,
                -0.6820000410079956
            ],
            "type" : "VEC3"
        },
        {
            "bufferView" : 5,
            "componentType" : 5126,
            "count" : 282,
            "type" : "VEC3"
        },
        {
            "bufferView" : 6,
            "componentType" : 5126,
            "count" : 282,
            "type" : "VEC2"
        },
        {
            "bufferView" : 7,
            "componentType" : 5123,
            "count" : 630,
            "type" : "SCALAR"
        },
        {
            "bufferView" : 8,
            "componentType" : 5126,
            "count" : 488,
            "max" : [
                1,
                1,
                1
            ],
            "min" : [
                -1,
                -1,
                -1
            ],
            "type" : "VEC3"
        },
        {
            "bufferView" : 9,
            "componentType" : 5126,
            "count" : 488,
            "type" : "VEC3"
        },
        {
            "bufferView" : 10,
            "componentType" : 5126,
            "count" : 488,
            "type" : "VEC2"
        },
        {
            "bufferView" : 11,
            "componentType" : 5123,
            "count" : 948,
            "type" : "SCALAR"
        }
    ],
    "bufferViews" : [
        {
            "buffer" : 0,
            "byteLength" : 2676,
            "byteOffset" : 0
        },
        {
            "buffer" : 0,
            "byteLength" : 2676,
            "byteOffset" : 2676
        },
        {
            "buffer" : 0,
            "byteLength" : 1784,
            "byteOffset" : 5352
        },
        {
            "buffer" : 0,
            "byteLength" : 1080,
            "byteOffset" : 7136
        },
        {
            "buffer" : 0,
            "byteLength" : 3384,
            "byteOffset" : 8216
        },
        {
            "buffer" : 0,
            "byteLength" : 3384,
            "byteOffset" : 11600
        },
        {
            "buffer" : 0,
            "byteLength" : 2256,
            "byteOffset" : 14984
        },
        {
            "buffer" : 0,
            "byteLength" : 1260,
            "byteOffset" : 17240
        },
        {
            "buffer" : 0,
            "byteLength" : 5856,
            "byteOffset" : 18500
        },
        {
            "buffer" : 0,
            "byteLength" : 5856,
            "byteOffset" : 24356
        },
        {
            "buffer" : 0,
            "byteLength" : 3904,
            "byteOffset" : 30212
        },
        {
            "buffer" : 0,
            "byteLength" : 1896,
            "byteOffset" : 34116
        }
    ],
    "buffers" : [
        {
            "byteLength" : 36012,
            "uri" : "data:application/octet-stream;base64,"
        }
    ]
}
